<?xml version="1.0" encoding="utf-8"?>
<!-- Generator: Adobe Illustrator 21.1.0, SVG Export Plug-In . SVG Version: 6.00 Build 0)  -->
<svg version="1.1" id="Layer_1" xmlns="http://www.w3.org/2000/svg" xmlns:xlink="http://www.w3.org/1999/xlink" x="0px" y="0px"
	 viewBox="0 0 240 190" style="enable-background:new 0 0 240 190;" xml:space="preserve">
<style type="text/css">
	.st0{fill-rule:evenodd;clip-rule:evenodd;fill:#282827;}
	.st1{fill-rule:evenodd;clip-rule:evenodd;fill:#A80B0B;}
	.st2{fill-rule:evenodd;clip-rule:evenodd;fill:#AE2024;}
	.st3{fill-rule:evenodd;clip-rule:evenodd;fill:none;stroke:#3F4040;stroke-miterlimit:10;}
	.st4{opacity:0.53;fill-rule:evenodd;clip-rule:evenodd;fill:#660000;}
	.st5{fill:none;stroke:#3F4040;stroke-miterlimit:10;}
</style>
<path class="st0" d="M69.9,184.4c1.3,1,2.3,0.8,2.7,0.6c1.1-0.6,1.3-1,1.3-1.9c0-2.7,0-7.8,0-7.8l0.3-13.1l0.7-15.1v-2
	c0,0,0.1-0.4-0.3-0.7c-0.7-0.5-1.3-0.1-1-0.7s0.4-1.6,1.3-1.3c1,0.3,3.3,0.4,4.9,0.3c1.6,0,11.7,0.4,12.8,0.3c1.1,0,1,0,1,0
	s-1.4,7.8-1.6,8.5s-0.5,1.3,0,2c0.5,0.7,1,1.4,2.3,1.6c1.3,0.3,1.7-0.8,2-1s0.6-1.5,0.7-2s1.3-8.7,1.3-8.8s0.2-0.4,1-0.3
	c0.8,0.1,24.3,0.7,27.5,0.7s15.6-0.1,16.7,0c1.1,0.1,1.2,0.4,1,1.3c-0.2,0.9,1.3,8.8,1.6,9.2c0.4,0.4,0.5,0.9,1.6,1
	c1.2,0.1,1.7,0.1,2.3-0.7c0.5-0.8,0-2.4,0-3.6c0-1.1-0.3-6.7-0.3-6.9c0-0.2,3.4,0,6.2,0c2.9,0,12.7-0.4,14.1-0.3s1.4-0.4,1.3,0.3
	c-0.1,0.7-0.8,1.2-0.8,1.2s-0.5,0.3-0.5,0.4c0,1.1,0,36,0,36s-0.2,1.2,0.3,2s0.7,0.9,1.6,1c1.5,0.2,1.7-0.6,2.1-0.9
	c0.3-0.3,0.6-2.7,0.6-3.4c0-0.5,4-28.2,4.3-29.5s0.4-2.6-0.3-3.3c-0.7-0.7-1.2-1.4-0.3-2c0.9-0.6,1.3-1.4,1.3-2.1
	c0-0.7,1.2-18,1.3-20.1c0.1-2.1-0.1-10.4-0.3-11.1s-0.3-5.3,0-7.5c0.3-2.3,1-9.4,1.3-10.8c0.4-1.4-0.6-1.8,0.3-2
	c0.9-0.1,0.7,0.6,1-0.3c0.3-0.9,0.6-3.2,0.7-3.9c0-0.8,0.7-1-0.7-1.3c-1.4-0.3-16.4-0.7-18.3-0.7c-2,0-9.8-0.5-11.8-0.7
	c-2-0.1-2.2,0.3-2.3-1.6c-0.1-1.9,1.6-15.4,1.6-15.4l2.9-20c0,0,2-16.8,2.3-17.7c0.3-0.9,1.9-13.2,2-14.7s0.5-4.8,0.7-5.6
	s0.1-1.5-0.7-2c-0.8-0.4-0.9-0.3-2-0.3c-1.1,0-1.5,0.1-2,0.7c-0.5,0.5-3.9,1.1-5.6,1.3c-1.7,0.2-11.2,1.6-13.1,1.6
	s-14.4,0.4-16.7,0.3c-2.3,0-17.3-0.4-19.7-0.7c-2.4-0.2-10.1-2-11.8-2.6c-1.7-0.6-0.1-1-2.3-0.3s-1.5,0.5-1.6,1.3
	C84.5,10.4,88,31.1,88,31.1s3.3,23.2,3.3,24.2c-0.1,1,1.9,22.8,2,23.6c0,0.8,0,5.2,0,5.2s-4.7,0.2-7.9,0.3
	c-3.2,0.1-18.3,0.3-19.7,0.7c-1.3,0.4-1.4,0-1.3,0.7c0.1,0.6,0.1,3,0.7,3.9c0.5,0.9,0.8,0.3,0.7,1c-0.1,0.7,1.3,15.6,1,17.7
	c-0.3,2.1-1.3,7.2-1.3,7.2c0,1.2,0.9,25.1,0.9,25.1s0,1.9-0.1,2.6c-0.2,1,1.2,0.3,1.2,1.2c0,0.9-0.3,1.4-1,2
	c-0.6,0.5,0.9,13.9,0.7,14.1s2,21.6,2.3,22.6C69.6,184.2,69.8,184.4,69.9,184.4z"/>
<path class="st1" d="M72.9,89.2c3.3-0.6,3.9-1,5.9-1.3c2-0.3,3.2-0.2,5-0.3c1.8-0.1,8.6-0.4,9.1-0.3c0.5,0.1,0.6,0.1,0.6,0.6
	c0.1,0.5,0.6,12.7,0.6,13.5c0.1,0.8,0,6.8,0,6.9c0,0.1-2.1,0.9-4.7,1.6c-2.6,0.7-8.1,3.6-10.3,4.7c-2.2,1.1-2.7,2-3.4,2.5
	c-0.7,0.5-0.5-0.8-0.6-1.6c-0.1-0.8-0.5-10.5-0.6-11.6c-0.2-1.1-0.2-7-0.6-8.1c-0.4-1.1-0.9-4.5-0.9-5S72,89.4,72.9,89.2z"/>
<path class="st1" d="M148.7,88.3c1.5-0.7,16.3,1.4,18.5,1.6c2.2,0.1,5.4,0,5.3,0.6s-1.3,7.8-1.9,9.4c-0.5,1.6-1.2,19.5-1.3,20.3
	s0.1,0.1-0.9-0.6c-1-0.8-10-7.5-13.1-8.1c-3.2-0.6-6.5-2.4-7.5-2.5c-1-0.1-0.4-3.8-0.3-4.7C147.5,103.4,148,88.6,148.7,88.3z"/>
<path class="st2" d="M98.3,109.3c0,0-4.8,0.9-7.9,2.2c-3.1,1.3-11.8,5.5-12.9,6.6c-1.1,1.1-2.4-1.4-1.6,1.9c0.8,3.3,0.6,4.3-0.3,6.6
	c-0.9,2.3-0.6,3.3,0,4.7c0.6,1.5-1.9,2.5,1.3,3.5c3.2,0.9,6.1,0.3,9.5,0.3c3.4,0,19.1-0.1,22.7,0s30.3,0.3,34.1,0.3
	c3.8,0,18.8,0.5,22.7,0.3c3.9-0.2,4.2,0.5,4.1-0.6c0-1.2,0.3-6.5,0-7.3c-0.3-0.7-0.7-3.9-0.3-4.4s1.6-1.1,0.3-1.6
	c-1.2-0.4-13.5-8.2-24.6-12c-1.2-6.3,1-14.3,0.3-16.4c-0.1-0.4,3.2-26.8,3.2-26.8s1.8-12.9,1.9-13.9c0.1-1,2.2-14.4,2.2-16.1
	s1.7-10.3,1.9-11.4s1-7.9,0.9-8.8c0-1,1.4-2.8-0.6-2.8s-3.7,0-4.7,0.3c-1.1,0.3-8.9,2.2-10.7,2.2s-15.9,0.5-18.9,0.6
	c-3,0.2-14.5-1.1-16.7-0.9c-2.2,0.2-10.7-1.5-11.7-1.6s-2.1-0.2-2.5,0.3c-0.5,0.6-1.1-0.1-0.9,1.3c0.2,1.4,1.3,8.4,1.6,9.8
	s4.7,34.7,4.7,34.7l2.2,24.3L98.3,109.3z"/>
<path class="st3" d="M99.5,109.2c0,0-3.9,0.8-7.2,2.1c-3,1.2-4.9,2.1-8.7,4.2c-0.7,0.4-4.1,1.7-4.3,5.1c-0.2,3.3,0.1,3,0.2,5.4
	c0.1,2.8,0,2.9,0,4.4c0,1.2,0.2,2.1,0.4,2.7c0.1,0.3,0.4,0.5,0.7,0.5c4,0.3,7.3,0.1,10.4,0.1c3.1,0,14.8,0.2,18.1,0.2
	c3.3,0.1,27.6,0.3,31,0.3s16.9,0.1,20.5,0c2.8,0,3.5-0.2,3.5-0.5c-0.1-1.7-0.2-5.2-0.3-6.5c0-1,0-3.9-0.1-4.6c0-1,0.3-2-0.8-2.4
	s-10.7-7.1-20.8-10.8c-1.1-6.2,0.9-13.9,0.3-16c-0.1-0.4,2.9-26.1,2.9-26.1s1.7-12.6,1.7-13.5s2-14,2-15.6c0-1.6,1.6-10,1.7-11
	c0.2-1.1,0.9-7.6,0.9-8.6s1.3-2.7-0.6-2.8c-1.8,0-3.3,0-4.3,0.3c-1,0.3-8.1,2.1-9.8,2.1c-1.7,0-14.5,0.5-17.2,0.6
	c-2.8,0.2-13.2-1.1-15.2-0.9s-9.7-1.5-10.6-1.5c-0.9-0.1-1.9-0.2-2.3,0.3c-0.4,0.5-1-0.1-0.9,1.2c0.1,1.3,1.2,8.2,1.4,9.5
	c0.2,1.3,4.3,33.7,4.3,33.7l2,23.6L99.5,109.2z"/>
<path class="st4" d="M164.1,133.2c0,0.6-0.4,1-1,1l-82.3-0.6c-0.6,0-1-0.5-1-1l-0.3-9.8c0-0.4,0.3-0.8,0.8-0.8h82.1
	c0.7,0,1.3,0.6,1.3,1.3L164.1,133.2z"/>
<line class="st5" x1="81.9" y1="126.2" x2="160.6" y2="126.2"/>
<line class="st5" x1="101.9" y1="109.1" x2="139.3" y2="109.3"/>
<line class="st5" x1="82.2" y1="130.1" x2="160.9" y2="130.1"/>
</svg>
