<?xml version="1.0" encoding="utf-8"?>
<!-- Generator: Adobe Illustrator 21.1.0, SVG Export Plug-In . SVG Version: 6.00 Build 0)  -->
<svg version="1.1" xmlns="http://www.w3.org/2000/svg" xmlns:xlink="http://www.w3.org/1999/xlink" x="0px" y="0px"
	 viewBox="0 0 240 190" style="enable-background:new 0 0 240 190;" xml:space="preserve">
<style type="text/css">
	.st0{fill-rule:evenodd;clip-rule:evenodd;fill:#282827;}
	.st1{fill-rule:evenodd;clip-rule:evenodd;fill:#A80B0B;}
	.st2{fill-rule:evenodd;clip-rule:evenodd;fill:#AE2024;}
	.st3{fill-rule:evenodd;clip-rule:evenodd;fill:none;stroke:#3F4040;stroke-miterlimit:10;}
	.st4{opacity:0.53;fill-rule:evenodd;clip-rule:evenodd;fill:#660000;}
	.st5{fill:none;stroke:#3F4040;stroke-miterlimit:10;}
	.st6{display:none;}
	.st7{display:inline;fill-rule:evenodd;clip-rule:evenodd;fill:#939292;}
	.st8{display:inline;}
	.st9{fill-rule:evenodd;clip-rule:evenodd;fill:#1A0F10;}
	.st10{fill-rule:evenodd;clip-rule:evenodd;fill:#939292;}
</style>
<g id="Layer_1">
	<g>
		<path class="st0" d="M132.2,172.9c1.2,0.9,2.1,0.7,2.4,0.5c1-0.5,1.1-0.9,1.1-1.7c0-2.4,0-7,0-7l0.3-11.6l0.6-13.3V138
			c0,0,0-0.4-0.3-0.6c-0.6-0.4-1.2-0.1-0.9-0.6s0.3-1.4,1.2-1.2s3,0.3,4.4,0.3c1.4,0,10.4,0.3,11.3,0.3c1,0,0.9,0,0.9,0
			s-1.2,6.9-1.5,7.5c-0.2,0.6-0.4,1.1,0,1.7c0.4,0.6,0.8,1.2,2,1.5s1.5-0.7,1.7-0.9c0.2-0.2,0.5-1.3,0.6-1.7
			c0.1-0.4,1.2-7.7,1.2-7.8c0-0.1,0.2-0.3,0.9-0.3c0.7,0.1,21.5,0.7,24.4,0.6c2.9-0.1,13.8-0.1,14.8,0c1,0.1,1.1,0.4,0.9,1.2
			s1.1,7.8,1.5,8.1c0.3,0.4,0.4,0.8,1.5,0.9c1,0.1,1.5,0.1,2-0.6c0.5-0.7,0-2.1,0-3.2c0-1-0.3-5.9-0.3-6.1c0-0.2,3,0,5.5,0
			c2.5,0,11.2-0.4,12.5-0.3c1.2,0.1,1.2-0.3,1.2,0.3s-0.7,1.1-0.7,1.1s-0.4,0.2-0.4,0.4c0,0.9,0,31.9,0,31.9s-0.1,1.1,0.3,1.7
			c0.4,0.6,0.6,0.8,1.4,0.9c1.3,0.2,1.5-0.5,1.8-0.8c0.3-0.3,0.5-2.4,0.5-3c0-0.5,3.5-25,3.8-26.1c0.2-1.1,0.3-2.3-0.3-2.9
			c-0.6-0.6-1.1-1.2-0.3-1.7c0.8-0.5,1.2-1.2,1.1-1.9c0-0.6,1.1-16,1.2-17.8s-0.1-9.2-0.3-9.9s-0.2-4.7,0-6.7c0.2-2,0.8-8.3,1.2-9.6
			c0.3-1.2-0.5-1.6,0.3-1.7c0.8-0.1,0.6,0.5,0.9-0.3c0.3-0.8,0.6-2.8,0.6-3.5c0-0.7,0.7-0.9-0.6-1.2c-1.2-0.2-14.5-0.6-16.2-0.6
			c-1.7,0-8.6-0.5-10.4-0.6s-1.9,0.3-2-1.5c-0.1-1.7,1.5-13.6,1.5-13.6l2.6-17.7c0,0,1.8-14.9,2-15.7s1.7-11.7,1.7-13.1
			c0-1.4,0.4-4.2,0.6-4.9c0.2-0.7,0.1-1.4-0.6-1.7c-0.7-0.4-0.8-0.3-1.7-0.3s-1.3,0.1-1.7,0.6c-0.4,0.5-3.4,1-4.9,1.2
			c-1.5,0.2-9.9,1.4-11.6,1.5S178.6,20,176.5,20c-2,0-15.3-0.4-17.4-0.6s-9-1.8-10.4-2.3c-1.5-0.6-0.1-0.8-2-0.3
			c-1.9,0.6-1.3,0.4-1.5,1.2c-0.1,0.7,2.9,19.1,2.9,19.1s3,20.6,2.9,21.5c-0.1,0.9,1.7,20.2,1.7,20.9c0,0.7,0,4.6,0,4.6
			s-4.2,0.2-7,0.3c-2.8,0.1-16.2,0.3-17.4,0.6c-1.2,0.3-1.3,0-1.2,0.6c0.1,0.6,0.1,2.7,0.6,3.5s0.7,0.3,0.6,0.9s1.2,13.8,0.9,15.7
			c-0.3,1.8-1.2,6.4-1.2,6.4c0,1.1,0.8,22.2,0.8,22.2s0,1.7-0.1,2.3c-0.1,0.9,1.1,0.3,1,1c0,0.8-0.3,1.3-0.9,1.7
			c-0.6,0.5,0.8,12.3,0.6,12.5c-0.2,0.2,1.7,19.1,2,20S132.1,172.8,132.2,172.9z"/>
		<path class="st1" d="M134.8,88.5c2.9-0.5,3.5-0.8,5.3-1.1c1.8-0.3,2.8-0.2,4.4-0.3c1.6-0.1,7.6-0.3,8-0.3c0.5,0.1,0.5,0.1,0.6,0.6
			c0.1,0.5,0.5,11.2,0.6,11.9c0,0.7,0,6,0,6.1c0,0.1-1.8,0.8-4.2,1.4s-7.2,3.2-9.1,4.2c-2,0.9-2.4,1.8-3,2.2
			c-0.6,0.4-0.5-0.7-0.6-1.4c-0.1-0.7-0.4-9.3-0.6-10.3c-0.1-1-0.2-6.2-0.6-7.2c-0.4-1-0.8-4-0.8-4.4
			C134.7,89.5,134,88.7,134.8,88.5z"/>
		<path class="st1" d="M201.9,87.7c1.3-0.6,14.4,1.3,16.4,1.4c1.9,0.1,4.8,0,4.7,0.6c-0.1,0.5-1.2,6.9-1.7,8.3
			c-0.5,1.4-1.1,17.3-1.1,18c0,0.7,0.1,0.1-0.8-0.6s-8.8-6.7-11.6-7.2c-2.8-0.6-5.7-2.1-6.7-2.2c-0.9-0.1-0.3-3.4-0.3-4.2
			C200.8,101.1,201.3,88,201.9,87.7z"/>
		<path class="st2" d="M157.3,106.3c0,0-4.2,0.8-7,2c-2.8,1.1-10.5,4.9-11.5,5.9c-1,1-2.1-1.2-1.4,1.7c0.7,2.9,0.5,3.8-0.3,5.9
			s-0.5,2.9,0,4.2c0.5,1.3-1.7,2.3,1.1,3.1c2.8,0.8,5.4,0.3,8.4,0.3c3,0,16.9-0.1,20.1,0c3.2,0.1,26.9,0.3,30.2,0.3
			c3.3,0,16.6,0.5,20.1,0.3s3.7,0.5,3.6-0.6c0-1,0.3-5.8,0-6.4c-0.3-0.7-0.6-3.5-0.3-3.9c0.3-0.5,1.4-1,0.3-1.4
			c-1.1-0.4-11.9-7.3-21.8-10.6c-1.1-5.6,0.8-12.7,0.3-14.5c-0.1-0.3,2.8-23.8,2.8-23.8s1.6-11.5,1.7-12.3s2-12.8,2-14.3
			c0-1.5,1.5-9.1,1.7-10.1c0.2-1,0.9-7,0.8-7.8s1.2-2.5-0.6-2.5c-1.8,0-3.3,0-4.2,0.3c-0.9,0.3-7.9,1.9-9.5,2
			c-1.6,0-14.1,0.4-16.8,0.6c-2.7,0.1-12.9-1-14.8-0.8s-9.5-1.3-10.3-1.4c-0.9-0.1-1.8-0.2-2.2,0.3c-0.4,0.5-1-0.1-0.8,1.1
			c0.1,1.2,1.2,7.5,1.4,8.7c0.2,1.2,4.2,30.8,4.2,30.8l2,21.5L157.3,106.3z"/>
		<path class="st3" d="M158.3,106.2c0,0-3.5,0.7-6.4,1.9c-2.7,1-4.4,1.9-7.7,3.7c-0.6,0.3-3.7,1.5-3.8,4.5c-0.2,2.9,0.1,2.7,0.2,4.8
			c0.1,2.5,0,2.6,0,3.9c0,1.1,0.2,1.9,0.4,2.4c0.1,0.2,0.3,0.5,0.6,0.5c3.6,0.3,6.5,0.1,9.3,0.1c2.8,0,13.1,0.1,16.1,0.2
			c3,0.1,24.4,0.3,27.5,0.3s14.9,0.1,18.1,0c2.5,0,3.1-0.2,3.1-0.4c-0.1-1.5-0.2-4.6-0.2-5.8c0-0.9,0-3.4-0.1-4.1
			c0-0.9,0.3-1.8-0.7-2.2c-1-0.4-9.5-6.3-18.4-9.5c-1-5.4,0.8-12.3,0.3-14.1c-0.1-0.3,2.5-23.1,2.5-23.1s1.5-11.1,1.5-12
			c0.1-0.8,1.8-12.4,1.8-13.9c0-1.5,1.4-8.8,1.5-9.8c0.1-1,0.8-6.8,0.8-7.6s1.1-2.4-0.5-2.4c-1.6,0-3,0-3.8,0.3
			c-0.9,0.3-7.2,1.9-8.6,1.9s-12.8,0.4-15.3,0.5c-2.4,0.1-11.7-1-13.5-0.8s-8.6-1.3-9.4-1.4c-0.8-0.1-1.7-0.2-2,0.3
			c-0.4,0.5-0.9-0.1-0.8,1.1c0.1,1.2,1.1,7.2,1.3,8.4c0.2,1.2,3.8,29.9,3.8,29.9l1.8,20.9L158.3,106.2z"/>
		<path class="st4" d="M215.5,127.5c0,0.5-0.4,0.9-0.9,0.9l-72.9-0.6c-0.5,0-0.9-0.4-0.9-0.9l-0.3-8.7c0-0.4,0.3-0.7,0.7-0.7H214
			c0.6,0,1.2,0.5,1.2,1.1L215.5,127.5z"/>
		<line class="st5" x1="142.7" y1="121.3" x2="212.4" y2="121.3"/>
		<line class="st5" x1="160.5" y1="106.1" x2="193.6" y2="106.3"/>
		<line class="st5" x1="143" y1="124.8" x2="212.7" y2="124.8"/>
	</g>
	<g>
		<path class="st0" d="M14.1,172.9c1.2,0.9,2.1,0.7,2.4,0.5c1-0.5,1.1-0.9,1.1-1.7c0-2.4,0-7,0-7l0.3-11.6l0.6-13.3V138
			c0,0,0-0.4-0.3-0.6c-0.6-0.4-1.2-0.1-0.9-0.6c0.3-0.5,0.3-1.4,1.2-1.2c0.8,0.3,3,0.3,4.4,0.3c1.4,0,10.4,0.3,11.3,0.3
			c1,0,0.9,0,0.9,0s-1.2,6.9-1.5,7.5c-0.2,0.6-0.4,1.1,0,1.7c0.4,0.6,0.8,1.2,2,1.5s1.5-0.7,1.7-0.9c0.2-0.2,0.5-1.3,0.6-1.7
			s1.2-7.7,1.2-7.8c0-0.1,0.2-0.3,0.9-0.3c0.7,0.1,21.5,0.7,24.4,0.6c2.9-0.1,13.8-0.1,14.8,0c1,0.1,1.1,0.4,0.9,1.2
			c-0.2,0.8,1.1,7.8,1.5,8.1c0.3,0.4,0.4,0.8,1.5,0.9c1,0.1,1.5,0.1,2-0.6c0.5-0.7,0-2.1,0-3.2c0-1-0.3-5.9-0.3-6.1c0-0.2,3,0,5.5,0
			s11.2-0.4,12.5-0.3s1.2-0.3,1.2,0.3c-0.1,0.6-0.7,1.1-0.7,1.1s-0.4,0.2-0.4,0.4c0,0.9,0,31.9,0,31.9s-0.1,1.1,0.3,1.7
			c0.4,0.6,0.6,0.8,1.4,0.9c1.3,0.2,1.5-0.5,1.8-0.8c0.3-0.3,0.5-2.4,0.5-3c0-0.5,3.5-25,3.8-26.1c0.2-1.1,0.3-2.3-0.3-2.9
			c-0.6-0.6-1.1-1.2-0.3-1.7s1.2-1.2,1.1-1.9c0-0.6,1.1-16,1.2-17.8c0.1-1.9-0.1-9.2-0.3-9.9s-0.2-4.7,0-6.7c0.2-2,0.8-8.3,1.2-9.6
			s-0.5-1.6,0.3-1.7c0.8-0.1,0.6,0.5,0.9-0.3c0.3-0.8,0.6-2.8,0.6-3.5c0-0.7,0.7-0.9-0.6-1.2c-1.2-0.2-14.5-0.6-16.2-0.6
			s-8.6-0.5-10.4-0.6s-1.9,0.3-2-1.5c-0.1-1.7,1.5-13.6,1.5-13.6l2.6-17.7c0,0,1.8-14.9,2-15.7c0.2-0.8,1.7-11.7,1.7-13.1
			c0-1.4,0.4-4.2,0.6-4.9c0.2-0.7,0.1-1.4-0.6-1.7c-0.7-0.4-0.8-0.3-1.7-0.3c-0.9,0-1.3,0.1-1.7,0.6c-0.4,0.5-3.4,1-4.9,1.2
			s-9.9,1.4-11.6,1.5c-1.7,0-12.8,0.3-14.8,0.3c-2,0-15.3-0.4-17.4-0.6c-2.1-0.2-9-1.8-10.4-2.3c-1.5-0.6-0.1-0.8-2-0.3
			s-1.3,0.4-1.5,1.2c-0.1,0.7,2.9,19.1,2.9,19.1s3,20.6,2.9,21.5c-0.1,0.9,1.7,20.2,1.7,20.9c0,0.7,0,4.6,0,4.6s-4.2,0.2-7,0.3
			c-2.8,0.1-16.2,0.3-17.4,0.6s-1.3,0-1.2,0.6c0.1,0.6,0.1,2.7,0.6,3.5s0.7,0.3,0.6,0.9c-0.1,0.6,1.2,13.8,0.9,15.7
			c-0.3,1.8-1.2,6.4-1.2,6.4c0,1.1,0.8,22.2,0.8,22.2s0,1.7-0.1,2.3c-0.1,0.9,1.1,0.3,1,1c0,0.8-0.3,1.3-0.9,1.7
			c-0.6,0.5,0.8,12.3,0.6,12.5c-0.2,0.2,1.7,19.1,2,20C13.8,172.6,14,172.8,14.1,172.9z"/>
		<path class="st1" d="M16.7,88.5c2.9-0.5,3.5-0.8,5.3-1.1c1.8-0.3,2.8-0.2,4.4-0.3s7.6-0.3,8-0.3S35,87,35,87.4
			c0.1,0.5,0.5,11.2,0.6,11.9c0,0.7,0,6,0,6.1c0,0.1-1.8,0.8-4.2,1.4s-7.2,3.2-9.1,4.2c-2,0.9-2.4,1.8-3,2.2s-0.5-0.7-0.6-1.4
			s-0.4-9.3-0.6-10.3c-0.1-1-0.2-6.2-0.6-7.2c-0.4-1-0.8-4-0.8-4.4C16.7,89.5,15.9,88.7,16.7,88.5z"/>
		<path class="st1" d="M83.9,87.7c1.3-0.6,14.4,1.3,16.4,1.4s4.8,0,4.7,0.6c-0.1,0.5-1.2,6.9-1.7,8.3c-0.5,1.4-1.1,17.3-1.1,18
			c0,0.7,0.1,0.1-0.8-0.6c-0.9-0.7-8.8-6.7-11.6-7.2c-2.8-0.6-5.7-2.1-6.7-2.2c-0.9-0.1-0.3-3.4-0.3-4.2
			C82.8,101.1,83.2,88,83.9,87.7z"/>
		<path class="st2" d="M39.2,106.3c0,0-4.2,0.8-7,2c-2.8,1.1-10.5,4.9-11.5,5.9c-1,1-2.1-1.2-1.4,1.7c0.7,2.9,0.5,3.8-0.3,5.9
			s-0.5,2.9,0,4.2s-1.7,2.3,1.1,3.1s5.4,0.3,8.4,0.3s16.9-0.1,20.1,0c3.2,0.1,26.9,0.3,30.2,0.3c3.3,0,16.6,0.5,20.1,0.3
			s3.7,0.5,3.6-0.6c0-1,0.3-5.8,0-6.4c-0.3-0.7-0.6-3.5-0.3-3.9c0.3-0.5,1.4-1,0.3-1.4c-1.1-0.4-11.9-7.3-21.8-10.6
			c-1.1-5.6,0.8-12.7,0.3-14.5C81.1,92,84,68.5,84,68.5s1.6-11.5,1.7-12.3s2-12.8,2-14.3c0-1.5,1.5-9.1,1.7-10.1
			c0.2-1,0.9-7,0.8-7.8c0-0.9,1.2-2.5-0.6-2.5c-1.8,0-3.3,0-4.2,0.3c-0.9,0.3-7.9,1.9-9.5,2s-14.1,0.4-16.8,0.6s-12.9-1-14.8-0.8
			s-9.5-1.3-10.3-1.4c-0.9-0.1-1.8-0.2-2.2,0.3c-0.4,0.5-1-0.1-0.8,1.1s1.2,7.5,1.4,8.7c0.2,1.2,4.2,30.8,4.2,30.8l2,21.5
			L39.2,106.3z"/>
		<path class="st3" d="M40.3,106.2c0,0-3.5,0.7-6.4,1.9c-2.7,1-4.4,1.9-7.7,3.7c-0.6,0.3-3.7,1.5-3.8,4.5c-0.2,2.9,0.1,2.7,0.2,4.8
			c0.1,2.5,0,2.6,0,3.9c0,1.1,0.2,1.9,0.4,2.4c0.1,0.2,0.3,0.5,0.6,0.5c3.6,0.3,6.5,0.1,9.3,0.1c2.8,0,13.1,0.1,16.1,0.2
			c3,0.1,24.4,0.3,27.5,0.3s14.9,0.1,18.1,0c2.5,0,3.1-0.2,3.1-0.4c-0.1-1.5-0.2-4.6-0.2-5.8c0-0.9,0-3.4-0.1-4.1
			c0-0.9,0.3-1.8-0.7-2.2c-1-0.4-9.5-6.3-18.4-9.5c-1-5.4,0.8-12.3,0.3-14.1c-0.1-0.3,2.5-23.1,2.5-23.1s1.5-11.1,1.5-12
			c0.1-0.8,1.8-12.4,1.8-13.9c0-1.5,1.4-8.8,1.5-9.8c0.1-1,0.8-6.8,0.8-7.6s1.1-2.4-0.5-2.4c-1.6,0-3,0-3.8,0.3
			c-0.9,0.3-7.2,1.9-8.6,1.9c-1.5,0-12.8,0.4-15.3,0.5c-2.4,0.1-11.7-1-13.5-0.8s-8.6-1.3-9.4-1.4c-0.8-0.1-1.7-0.2-2,0.3
			c-0.4,0.5-0.9-0.1-0.8,1.1c0.1,1.2,1.1,7.2,1.3,8.4c0.2,1.2,3.8,29.9,3.8,29.9l1.8,20.9L40.3,106.2z"/>
		<path class="st4" d="M97.5,127.5c0,0.5-0.4,0.9-0.9,0.9l-72.9-0.6c-0.5,0-0.9-0.4-0.9-0.9l-0.3-8.7c0-0.4,0.3-0.7,0.7-0.7h72.7
			c0.6,0,1.2,0.5,1.2,1.1L97.5,127.5z"/>
		<line class="st5" x1="24.7" y1="121.3" x2="94.4" y2="121.3"/>
		<line class="st5" x1="42.4" y1="106.1" x2="75.6" y2="106.3"/>
		<line class="st5" x1="25" y1="124.8" x2="94.7" y2="124.8"/>
	</g>
</g>
<g id="Layer_2" class="st6">
	<path class="st7" d="M28.5,91.9c3.2-0.5,3.8-0.9,5.7-1.2c1.9-0.3,3.1-0.2,4.8-0.3s8.2-0.4,8.7-0.3c0.5,0.1,0.5,0.1,0.6,0.6
		c0.1,0.5,0.5,12.1,0.6,12.9c0.1,0.8,0,6.5,0,6.6s-2,0.8-4.5,1.5c-2.5,0.7-7.8,3.5-9.9,4.5c-2.1,1-2.6,2-3.3,2.4
		c-0.7,0.5-0.5-0.8-0.6-1.5c-0.1-0.7-0.5-10.1-0.6-11.1c-0.1-1-0.2-6.7-0.6-7.8s-0.8-4.3-0.9-4.8C28.5,92.9,27.7,92.1,28.5,91.9z"/>
	<g class="st8">
		<path class="st9" d="M11.4,175.6c1.2,0.9,2.4,0.1,2.7,0.3c0.3,0.2,0.7,0.4,0.3,0.3c-0.4-0.1,0.6-9,0.6-9l0.3-12l0.6-13.8v-1.8
			c0,0,0.4-0.3-0.3-0.6s-1.2-0.1-0.9-0.6s0.3-1.5,1.2-1.2c0.9,0.3,3.1,0.3,4.5,0.3c1.4,0,10.7,0.3,11.7,0.3c1,0,0.9,0,0.9,0
			s-1.3,7.1-1.5,7.8c-0.2,0.7-0.4,1.2,0,1.8c0.4,0.6,0.9,1.3,2.1,1.5c1.2,0.2,1.6-0.7,1.8-0.9s0.5-1.4,0.6-1.8
			c0.1-0.4,1.2-8,1.2-8.1s0.2-0.4,0.9-0.3s22.3,0.7,25.2,0.6c3-0.1,14.3-0.1,15.3,0c1,0.1,1.1,0.4,0.9,1.2c-0.2,0.8,1.2,8,1.5,8.4
			s0.4,0.8,1.5,0.9c1.1,0.1,1.6,0.1,2.1-0.6c0.5-0.7,0-2.2,0-3.3c0-1-0.3-6.1-0.3-6.3c0-0.2,3.1,0,5.7,0c2.6,0,11.6-0.4,12.9-0.3
			c1.3,0.1,1.3-0.4,1.2,0.3c-0.1,0.7-0.9,1.2-0.9,1.2s-0.3-0.7-0.3,0.3c0,1,0,33,0,33s0.1,1.1,0.6,1.8c0.5,0.7-0.2,0.8,1.2,0.9
			c1.4,0.1,1.1-0.4,1.5-0.6c0.4-0.2,0.7-2.9,0.9-3.3c0.2-0.4,3.7-25.8,3.9-27s0.3-2.3-0.3-3c-0.6-0.7-1.1-1.2-0.3-1.8
			c0.8-0.6,1.4-0.9,1.2-1.5c-0.2-0.6,1.1-17,1.2-18.9c0.1-2-0.1-9.5-0.3-10.2c-0.2-0.7-0.3-4.8,0-6.9c0.3-2.1,0.9-8.6,1.2-9.9
			c0.3-1.3-0.5-1.7,0.3-1.8c0.8-0.1,0.6,0.6,0.9-0.3c0.3-0.9,0.6-2.9,0.6-3.6c0-0.7,0.7-1-0.6-1.2c-1.3-0.2-15-0.6-16.8-0.6
			s-8.9-0.5-10.8-0.6c-1.9-0.1-2,0.3-2.1-1.5C85.2,81.4,86.8,69,86.8,69l2.7-18.3c0,0,1.9-15.4,2.1-16.2s1.8-12.1,1.8-13.5
			c0-1.4,0.4-4.4,0.6-5.1c0.2-0.7,0.1-1.4-0.6-1.8s-0.8-0.3-1.8-0.3s-1.4,0.1-1.8,0.6c-0.4,0.5-3.6,1-5.1,1.2
			c-1.6,0.2-10.3,1.5-12,1.5s-13.2,0.3-15.3,0.3c-2.1,0-15.8-0.4-18-0.6c-2.2-0.2-9.3-1.8-10.8-2.4c-1.5-0.6-0.1-0.9-2.1-0.3
			s-1.4,0.4-1.5,1.2c-0.1,0.8,3,19.8,3,19.8s3.1,21.3,3,22.2c-0.1,0.9,1.8,20.9,1.8,21.6c0,0.7,0,4.8,0,4.8s-4.3,0.2-7.2,0.3
			c-2.9,0.1-16.8,0.3-18,0.6c-1.2,0.3-1.3,0-1.2,0.6c0.1,0.6,0.1,2.8,0.6,3.6s0.7,0.3,0.6,0.9c-0.1,0.6,1.2,14.3,0.9,16.2
			s-1.2,6.6-1.2,6.6c0,1.1,0.9,24.6,0.9,24.6s-0.6,0.1,0,0.9c0.6,0.8,0.9,0.1,0.9,0.9s-0.3,1.3-0.9,1.8c-0.6,0.5,0.8,12.8,0.6,12.9
			s1.8,19.8,2.1,20.7C11.1,175.4,11.3,175.5,11.4,175.6z"/>
		<path class="st10" d="M41.2,109c0,0-3.7,0.8-6.2,2c-2.4,1.1-9.2,4.9-10.1,5.9c-0.9,1-1.9-1.2-1.2,1.7c0.6,2.9,0.5,3.9-0.2,5.9
			c-0.7,2-0.5,2.9,0,4.2c0.5,1.3-1.5,2.3,1,3.1c2.5,0.8,4.7,0.3,7.4,0.3s14.9-0.1,17.8,0s23.7,0.3,26.7,0.3c3,0,14.7,0.5,17.8,0.3
			c3.1-0.2,3.2,0.5,3.2-0.6c0-1,0.2-5.8,0-6.5c-0.2-0.7-0.6-3.5-0.2-3.9c0.3-0.5,1.2-1,0.2-1.4c-1-0.4-10.5-7.3-19.3-10.7
			c-1-5.6,0.8-12.8,0.2-14.6C78.2,94.5,80.7,71,80.7,71s1.4-11.5,1.5-12.4c0.1-0.9,1.7-12.8,1.7-14.3c0-1.5,1.3-9.1,1.5-10.1
			c0.1-1,0.8-7,0.7-7.9c0-0.9,1.1-2.5-0.5-2.5s-2.9,0-3.7,0.3c-0.8,0.3-7,1.9-8.4,2c-1.4,0-12.4,0.4-14.8,0.6
			c-2.4,0.1-11.4-1-13.1-0.8c-1.7,0.2-8.4-1.3-9.1-1.4c-0.8-0.1-1.6-0.2-2,0.3c-0.4,0.5-0.9-0.1-0.7,1.1c0.1,1.2,1,7.5,1.2,8.7
			c0.2,1.2,3.7,30.9,3.7,30.9L40.5,87L41.2,109z"/>
	</g>
	<g class="st8">
		<path class="st9" d="M129.1,175.6c1.2,0.9,2.4,0.1,2.7,0.3c0.3,0.2,0.7,0.4,0.3,0.3c-0.4-0.1,0.6-9,0.6-9l0.3-12l0.6-13.8v-1.8
			c0,0,0.4-0.3-0.3-0.6s-1.2-0.1-0.9-0.6s0.3-1.5,1.2-1.2c0.9,0.3,3.1,0.3,4.5,0.3c1.4,0,10.7,0.3,11.7,0.3c1,0,0.9,0,0.9,0
			s-1.3,7.1-1.5,7.8s-0.4,1.2,0,1.8c0.4,0.6,0.9,1.3,2.1,1.5c1.2,0.2,1.6-0.7,1.8-0.9c0.2-0.2,0.5-1.4,0.6-1.8
			c0.1-0.4,1.2-8,1.2-8.1s0.2-0.4,0.9-0.3s22.3,0.7,25.2,0.6s14.3-0.1,15.3,0s1.1,0.4,0.9,1.2c-0.2,0.8,1.2,8,1.5,8.4
			s0.4,0.8,1.5,0.9s1.6,0.1,2.1-0.6c0.5-0.7,0-2.2,0-3.3c0-1-0.3-6.1-0.3-6.3c0-0.2,3.1,0,5.7,0c2.6,0,11.6-0.4,12.9-0.3
			c1.3,0.1,1.3-0.4,1.2,0.3c-0.1,0.7-0.9,1.2-0.9,1.2s-0.3-0.7-0.3,0.3c0,1,0,33,0,33s0.1,1.1,0.6,1.8s-0.2,0.8,1.2,0.9
			c1.4,0.1,1.1-0.4,1.5-0.6c0.4-0.2,0.7-2.9,0.9-3.3c0.2-0.4,3.7-25.8,3.9-27c0.2-1.2,0.3-2.3-0.3-3c-0.6-0.7-1.1-1.2-0.3-1.8
			c0.8-0.6,1.4-0.9,1.2-1.5c-0.2-0.6,1.1-17,1.2-18.9c0.1-2-0.1-9.5-0.3-10.2c-0.2-0.7-0.3-4.8,0-6.9c0.3-2.1,0.9-8.6,1.2-9.9
			s-0.5-1.7,0.3-1.8s0.6,0.6,0.9-0.3c0.3-0.9,0.6-2.9,0.6-3.6s0.7-1-0.6-1.2c-1.3-0.2-15-0.6-16.8-0.6c-1.8,0-8.9-0.5-10.8-0.6
			c-1.9-0.1-2,0.3-2.1-1.5c-0.1-1.8,1.5-14.1,1.5-14.1l2.7-18.3c0,0,1.9-15.4,2.1-16.2s1.8-12.1,1.8-13.5c0-1.4,0.4-4.4,0.6-5.1
			c0.2-0.7,0.1-1.4-0.6-1.8s-0.8-0.3-1.8-0.3s-1.4,0.1-1.8,0.6c-0.4,0.5-3.6,1-5.1,1.2s-10.3,1.5-12,1.5c-1.7,0-13.2,0.3-15.3,0.3
			c-2.1,0-15.8-0.4-18-0.6s-9.3-1.8-10.8-2.4c-1.5-0.6-0.1-0.9-2.1-0.3c-2,0.6-1.4,0.4-1.5,1.2c-0.1,0.8,3,19.8,3,19.8
			s3.1,21.3,3,22.2c-0.1,0.9,1.8,20.9,1.8,21.6s0,4.8,0,4.8s-4.3,0.2-7.2,0.3c-2.9,0.1-16.8,0.3-18,0.6c-1.2,0.3-1.3,0-1.2,0.6
			c0.1,0.6,0.1,2.8,0.6,3.6c0.5,0.8,0.7,0.3,0.6,0.9c-0.1,0.6,1.2,14.3,0.9,16.2c-0.3,1.9-1.2,6.6-1.2,6.6c0,1.1,0.9,24.6,0.9,24.6
			s-0.6,0.1,0,0.9s0.9,0.1,0.9,0.9c0,0.8-0.3,1.3-0.9,1.8c-0.6,0.5,0.8,12.8,0.6,12.9c-0.2,0.2,1.8,19.8,2.1,20.7
			S129,175.5,129.1,175.6z"/>
		<path class="st10" d="M131.2,89.4c3.2-0.5,3.8-0.9,5.7-1.2c1.9-0.3,3.1-0.2,4.8-0.3c1.7-0.1,8.2-0.4,8.7-0.3s0.5,0.1,0.6,0.6
			c0.1,0.5,0.5,12.1,0.6,12.9c0.1,0.8,0,6.5,0,6.6s-2,0.8-4.5,1.5c-2.5,0.7-7.8,3.5-9.9,4.5s-2.6,2-3.3,2.4
			c-0.7,0.5-0.5-0.8-0.6-1.5c-0.1-0.7-0.5-10.1-0.6-11.1c-0.1-1-0.2-6.7-0.6-7.8c-0.4-1.1-0.8-4.3-0.9-4.8
			C131.2,90.5,130.3,89.6,131.2,89.4z"/>
		<path class="st10" d="M203,88.5c1.4-0.7,15.6,1.4,17.7,1.5c2.1,0.1,5.2,0,5.1,0.6c-0.1,0.6-1.3,7.5-1.8,9
			c-0.5,1.5-1.2,18.7-1.2,19.5s0.1,0.1-0.9-0.6c-1-0.7-9.6-7.2-12.6-7.8c-3-0.6-6.2-2.3-7.2-2.4c-1-0.1-0.3-3.7-0.3-4.5
			C201.8,103,202.3,88.9,203,88.5z"/>
		<path class="st10" d="M158.9,109c0,0-3.7,0.8-6.2,2c-2.4,1.1-9.2,4.9-10.1,5.9c-0.9,1-1.9-1.2-1.2,1.7c0.6,2.9,0.5,3.9-0.2,5.9
			c-0.7,2-0.5,2.9,0,4.2c0.5,1.3-1.5,2.3,1,3.1c2.5,0.8,4.7,0.3,7.4,0.3s14.9-0.1,17.8,0s23.7,0.3,26.7,0.3c3,0,14.7,0.5,17.8,0.3
			c3.1-0.2,3.2,0.5,3.2-0.6s0.2-5.8,0-6.5c-0.2-0.7-0.6-3.5-0.2-3.9c0.3-0.5,1.2-1,0.2-1.4s-10.5-7.3-19.3-10.7
			c-1-5.6,0.8-12.8,0.2-14.6c-0.1-0.3,2.5-23.9,2.5-23.9s1.4-11.5,1.5-12.4c0.1-0.9,1.7-12.8,1.7-14.3c0-1.5,1.3-9.1,1.5-10.1
			c0.1-1,0.8-7,0.7-7.9c0-0.9,1.1-2.5-0.5-2.5c-1.6,0-2.9,0-3.7,0.3c-0.8,0.3-7,1.9-8.4,2c-1.4,0-12.4,0.4-14.8,0.6
			s-11.4-1-13.1-0.8c-1.7,0.2-8.4-1.3-9.1-1.4s-1.6-0.2-2,0.3c-0.4,0.5-0.9-0.1-0.7,1.1c0.1,1.2,1,7.5,1.2,8.7s3.7,30.9,3.7,30.9
			l1.7,21.7L158.9,109z"/>
	</g>
</g>
</svg>
